<?xml version="1.0" encoding="iso-8859-1"?>
<!-- Generator: Adobe Illustrator 19.1.0, SVG Export Plug-In . SVG Version: 6.00 Build 0)  -->
<svg version="1.1" id="Capa_1" xmlns="http://www.w3.org/2000/svg" xmlns:xlink="http://www.w3.org/1999/xlink" x="0px" y="0px"
	 viewBox="0 0 515.46 515.46" style="enable-background:new 0 0 515.46 515.46;" xml:space="preserve">
<path d="M491.118,370.018L450.48,329.38c12.833-29.944,19.249-59.887,19.249-94.109C469.729,104.803,364.927,0,234.458,0
	C174.571,0,114.683,23.527,69.767,68.443S1.324,173.246,1.324,235.272c0,130.469,104.803,235.272,235.272,235.272
	c34.221,0,66.304-6.416,94.109-19.249l40.638,40.638c14.972,14.972,36.36,23.527,55.61,23.527c21.388,0,44.916-8.555,62.026-25.666
	C521.061,453.433,523.2,402.1,491.118,370.018L491.118,370.018z M236.597,427.767c-106.942,0-192.495-85.553-192.495-192.495
	c0-51.332,19.249-100.525,55.61-136.885c36.36-36.36,85.553-55.61,136.885-55.61c106.942,0,192.495,85.553,192.495,192.495
	S343.538,427.767,236.597,427.767z M459.035,457.71c-17.11,17.11-42.777,17.11-57.749,2.139l-32.083-32.083
	c23.527-17.11,44.916-36.36,59.887-59.887l32.082,32.082C476.146,414.933,476.146,440.6,459.035,457.71z"/>
<path d="M277.234,91.97c-38.499-10.694-79.137-6.416-113.358,12.833s-59.887,51.332-70.581,89.831
	c-4.278,10.694,2.139,23.527,14.972,25.666c2.139,0,4.278,0,6.416,0c8.555,0,17.11-6.416,21.388-14.972
	c8.555-27.805,25.666-49.193,51.332-64.165c25.666-12.833,53.471-17.11,81.275-8.555c10.694,4.278,23.527-4.278,25.666-14.972
	C296.484,106.942,290.067,94.109,277.234,91.97L277.234,91.97z"/>
<g>
</g>
<g>
</g>
<g>
</g>
<g>
</g>
<g>
</g>
<g>
</g>
<g>
</g>
<g>
</g>
<g>
</g>
<g>
</g>
<g>
</g>
<g>
</g>
<g>
</g>
<g>
</g>
<g>
</g>
</svg>
